PathFileType  4	(X/Y/Z) C:\Users\antoi\Documents\MyRepositories\mobilecap\ResultsAnalysis
DataRate	CameraRate	NumFrames	NumMarkers	Units	OrigDataRate	OrigDataStartFrame	OrigNumFrames
100.0	100.0	6	51	mm	100.0	121	240
Frame#	Time	r_knee			r_shank_antsup			r_ankle			r_calc			r_5meta			r_toe			L_knee			L_shank_antsup			L_ankle			L_calc			L_5meta			L_toe			r_sh2			r_sh3			r_sh4			L_sh2			L_sh3			r_thigh1			r_thigh2			r_thigh3			r_thigh4			r_thigh5			L_thigh1			L_thigh2			L_thigh3			L_thigh4			r.ASIS			r.PSIS			L.ASIS			L.PSIS			C7			R_Shoulder			L_Shoulder			R_Sternum			L_Sternum			R_humerus			R_elbow_med			R_elbow_lat			R_forearm			R_wrist_radius			R_wrist_ulna			L_humerus			L_elbow_med			L_elbow_lat			L_forearm			L_wrist_radius			L_wrist_ulna			R_HJC			L_HJC			R_HJC_reg			L_HJC_reg			
		X1	Y1	Z1	X2	Y2	Z2	X3	Y3	Z3	X4	Y4	Z4	X5	Y5	Z5	X6	Y6	Z6	X7	Y7	Z7	X8	Y8	Z8	X9	Y9	Z9	X10	Y10	Z10	X11	Y11	Z11	X12	Y12	Z12	X13	Y13	Z13	X14	Y14	Z14	X15	Y15	Z15	X16	Y16	Z16	X17	Y17	Z17	X18	Y18	Z18	X19	Y19	Z19	X20	Y20	Z20	X21	Y21	Z21	X22	Y22	Z22	X23	Y23	Z23	X24	Y24	Z24	X25	Y25	Z25	X26	Y26	Z26	X27	Y27	Z27	X28	Y28	Z28	X29	Y29	Z29	X30	Y30	Z30	X31	Y31	Z31	X32	Y32	Z32	X33	Y33	Z33	X34	Y34	Z34	X35	Y35	Z35	X36	Y36	Z36	X37	Y37	Z37	X38	Y38	Z38	X39	Y39	Z39	X40	Y40	Z40	X41	Y41	Z41	X42	Y42	Z42	X43	Y43	Z43	X44	Y44	Z44	X45	Y45	Z45	X46	Y46	Z46	X47	Y47	Z47	X48	Y48	Z48	X49	Y49	Z49	X50	Y50	Z50	X51	Y51	Z51	

121	1.20000000	-432.03183	657.89658	-400.42731	-376.22918	603.59282	-399.55841	-369.33324	254.12062	-361.57232	-428.75682	238.86405	-410.49902	-279.55063	164.56820	-327.86588	-218.82137	191.22480	-367.22364	-435.82590	662.05390	-805.41590	-383.88568	584.55517	-825.61375	-378.08588	265.21853	-847.76354	-435.99337	246.68098	-790.51202	-289.89260	171.23956	-888.27309	-237.09231	194.79074	-847.45494	-375.99896	494.33266	-363.08384	-457.57094	598.30491	-387.17722	-449.77576	487.14752	-369.17513	-472.21525	574.81032	-821.79894	-447.23925	456.96356	-846.22578	-471.99633	977.85370	-408.11441	-443.48749	868.40855	-401.99624	-546.82347	834.92204	-399.81357	-580.97018	946.78147	-409.04984	-494.68961	832.98341	-378.13426	-478.53658	932.44071	-822.17144	-433.28695	802.03938	-812.79608	-581.39948	895.64665	-777.70307	-531.11647	764.76108	-786.30487	-465.47035	1120.59078	-470.67801	-641.14187	1171.39071	-560.23232	-447.56658	1116.73147	-718.17792	-642.01184	1179.13323	-658.36501	-562.38618	1576.80963	-579.28620	-481.97112	1515.07554	-409.41397	-472.69521	1552.00171	-746.40723	-427.53636	1515.41017	-547.20554	-422.31131	1521.38733	-590.16161	-511.30706	1382.11140	-345.06502	-583.42807	1179.53492	-406.06861	-582.31467	1192.73348	-330.02453	-446.21166	1163.15539	-315.43690	-320.62454	1125.33170	-316.32109	-327.46539	1092.97527	-304.41654	-467.70711	1461.52873	-833.24356	-559.32583	1236.54923	-857.86145	-531.49640	1280.62344	-923.82335	-428.80765	1233.94306	-905.51789	-302.96797	1148.78564	-894.34840	-310.97424	1137.56312	-924.96527	-544.01755	1046.05137	-499.69765	-530.55979	1048.77523	-705.70800	-531.18358	1042.65378	-510.28101	-532.63179	1055.53720	-673.56839	
122	1.21000000	-415.95887	642.43981	-399.49445	-359.35466	589.29549	-397.92940	-348.46570	240.41257	-357.66577	-407.50129	224.30231	-406.58258	-257.99588	152.05140	-322.73044	-197.39250	178.34635	-362.55183	-417.64908	647.48180	-806.80247	-365.19628	570.59551	-827.47361	-356.54340	251.18652	-849.81284	-415.25949	232.69201	-794.56964	-267.53434	157.84462	-890.35099	-215.46802	181.29104	-848.84100	-357.78902	480.12424	-360.96456	-440.85796	582.93961	-385.69015	-431.45216	472.03630	-367.05117	-453.40080	560.15022	-823.78338	-427.54794	442.62982	-848.59829	-460.04586	961.46854	-407.12696	-430.53068	852.28068	-401.39392	-533.27326	817.67578	-400.00354	-568.58837	929.13451	-409.62643	-481.65536	816.97396	-377.54425	-464.31131	916.98054	-822.65291	-417.29543	787.22974	-813.60519	-566.76266	878.56977	-778.43362	-514.57075	748.60170	-787.52049	-454.00240	1104.89606	-470.52927	-629.66890	1154.37725	-560.44233	-433.74376	1102.49566	-717.62020	-630.38034	1162.14895	-658.80847	-552.65404	1560.20911	-578.25033	-471.28666	1498.56083	-408.42980	-463.42119	1536.09652	-745.42411	-417.55536	1499.42688	-546.35361	-412.29954	1505.32820	-589.38272	-501.20107	1365.66568	-344.08484	-573.14707	1163.20823	-405.21992	-572.00186	1176.29508	-329.19956	-436.00520	1146.35849	-314.34903	-310.39048	1108.33293	-315.30182	-317.39476	1075.78138	-303.58779	-459.38030	1446.36149	-832.93258	-552.59059	1222.22627	-857.87005	-525.52902	1266.97239	-924.26662	-422.94622	1220.55259	-907.10834	-296.35598	1136.25801	-897.30964	-304.32625	1125.25079	-927.75616	-531.36872	1029.63783	-500.14202	-516.56893	1033.54017	-706.04022	-518.26736	1027.23365	-510.17815	-519.44733	1040.12186	-673.30654	
123	1.22000000	-398.75448	626.40912	-398.03555	-341.58867	573.87070	-396.29452	-329.40774	225.43714	-354.08710	-388.74551	209.31178	-402.59950	-238.89698	137.24638	-318.77708	-178.39014	162.72520	-359.13800	-398.07927	632.40267	-808.36145	-345.05604	555.67939	-828.71331	-337.04449	236.36690	-852.25654	-397.10508	218.75221	-798.85296	-248.46579	142.05820	-891.47017	-197.01628	164.49263	-849.03402	-339.49799	464.62200	-358.77433	-423.19408	566.58615	-384.32437	-413.15688	456.40951	-364.81840	-433.34788	545.49187	-825.94070	-407.75164	427.94711	-851.04895	-447.63041	944.34288	-406.42197	-416.55246	835.58359	-400.52122	-518.71124	799.50870	-400.15066	-555.53002	910.42410	-410.28288	-467.46405	800.17511	-376.85810	-449.43416	901.17055	-823.28090	-399.96210	772.20943	-814.67106	-551.42626	860.49146	-779.46555	-496.37772	731.94088	-788.97323	-442.62955	1088.27256	-470.55738	-618.43856	1135.95699	-560.53212	-420.67447	1087.29650	-717.15821	-619.05206	1143.82346	-659.08272	-543.27325	1542.38546	-577.13618	-460.87179	1481.08661	-407.65768	-454.77249	1519.16758	-744.49348	-407.40994	1482.41753	-545.75178	-402.42851	1488.30594	-588.73374	-491.00361	1348.17687	-343.24980	-562.69019	1145.72716	-404.33403	-561.29882	1158.70481	-328.64180	-425.32904	1128.43397	-313.60674	-299.71849	1090.20627	-314.65633	-306.80785	1057.46274	-303.26050	-451.77398	1430.26707	-832.45877	-545.94515	1206.72734	-857.74219	-519.74811	1251.81536	-924.20400	-416.80145	1206.20504	-908.12873	-289.71970	1123.12092	-899.86200	-297.43712	1112.25305	-930.28188	-518.68366	1012.11600	-500.55745	-502.95437	1017.16500	-706.36816	-505.44209	1010.61532	-510.27503	-506.45573	1023.61641	-673.15267	
124	1.23000000	-380.36270	609.85810	-395.89582	-322.75777	557.37373	-394.46915	-312.11240	209.26332	-350.93262	-372.67671	193.56492	-398.64429	-222.02548	120.67996	-316.14480	-161.74001	145.31818	-357.32025	-377.42489	616.68381	-809.88702	-323.62847	539.85100	-829.48984	-319.78545	220.82098	-854.84723	-381.75419	204.82744	-803.15770	-232.53691	124.91102	-892.45186	-181.62821	145.49458	-848.24004	-320.87986	448.07117	-356.59104	-404.18603	549.31108	-383.33461	-394.68961	440.27371	-362.24795	-412.19848	530.85578	-828.35114	-387.73247	413.05012	-853.64843	-434.16498	926.33099	-406.80059	-401.53912	818.37321	-399.64265	-503.05497	780.66347	-400.04068	-541.68204	890.75746	-411.00178	-452.02586	782.48772	-376.12707	-433.84527	885.04415	-823.78794	-381.44987	756.93240	-815.84667	-535.26844	841.55545	-780.83876	-476.90545	714.64564	-790.50737	-431.50539	1070.79138	-470.89135	-607.51651	1116.13979	-560.59159	-408.93188	1070.63006	-716.96969	-608.00249	1124.02133	-659.18170	-534.16855	1523.37563	-575.89290	-450.59562	1462.64055	-406.98460	-446.57609	1501.10560	-743.58446	-397.30880	1464.30589	-545.23307	-392.66009	1470.33639	-588.21143	-480.61831	1329.69835	-342.45544	-551.73637	1127.21370	-403.45675	-550.02636	1139.88756	-328.29828	-414.00894	1109.44403	-313.42053	-288.46169	1070.95521	-314.38037	-295.62517	1038.15430	-303.32750	-444.83720	1413.21914	-831.96754	-539.04792	1189.76454	-857.61487	-513.96343	1235.23329	-923.81304	-410.48241	1190.88046	-908.91386	-282.56848	1109.25401	-901.66714	-290.25418	1098.48138	-932.34155	-506.17500	993.57090	-500.82943	-490.18396	999.26731	-706.60302	-493.11318	992.71806	-510.67485	-493.91510	1005.71445	-673.24516	
125	1.24000000	-360.70529	592.66596	-393.47361	-302.67526	539.75231	-392.19175	-296.77688	192.09180	-348.30385	-358.71978	176.73082	-394.72453	-207.02290	102.72027	-314.69078	-147.32033	126.62444	-357.06665	-355.56300	600.55090	-811.42523	-301.16462	522.94275	-830.15347	-305.08580	204.22852	-856.74132	-369.04203	190.18450	-807.16948	-219.34244	106.89518	-893.41872	-169.04421	125.29861	-846.73040	-301.88422	430.67695	-354.49861	-383.76238	532.62965	-380.85763	-375.93329	423.97901	-359.04291	-389.95839	516.22752	-830.97932	-367.99968	397.82305	-856.30501	-419.59053	907.41846	-407.97386	-385.80869	800.72595	-398.63511	-486.42018	761.19414	-399.71674	-527.04802	870.32917	-411.71058	-435.61079	763.99926	-375.39966	-417.55328	868.34108	-823.91231	-362.09132	741.28438	-817.01440	-518.28094	821.86774	-782.33205	-456.69494	696.58714	-792.03895	-420.76262	1052.44125	-471.36599	-596.95636	1094.84735	-560.74729	-397.47453	1052.98293	-717.09711	-597.26379	1102.66426	-659.15401	-525.22256	1503.27001	-574.66981	-440.42893	1443.19390	-406.16367	-438.67105	1481.88269	-742.71979	-387.58119	1445.09477	-544.43902	-383.18708	1451.33111	-587.58400	-469.93679	1310.25343	-341.51869	-540.12013	1107.64663	-402.67361	-538.15473	1119.80991	-327.88984	-402.13997	1089.22396	-313.35310	-276.53284	1050.66190	-314.42489	-283.70855	1017.77698	-303.74827	-438.47917	1395.27142	-831.75555	-531.70968	1171.32876	-857.45041	-508.05230	1217.50375	-923.43965	-404.03962	1174.59519	-909.63013	-274.77844	1094.76542	-903.57243	-282.68088	1083.89623	-933.99916	-493.65280	973.91192	-501.15177	-477.53856	980.19189	-706.89617	-480.91540	973.67832	-511.24908	-481.42287	986.57856	-673.64814	
126	1.25000000	-339.59045	575.16416	-391.08596	-281.74352	521.21852	-390.05320	-282.12105	174.23868	-345.93754	-344.70414	159.94163	-390.73029	-193.10618	82.72517	-313.80119	-134.04518	104.75631	-358.06623	-332.06807	584.56331	-813.41498	-278.14740	505.13666	-830.85079	-291.28693	186.66291	-858.32194	-356.60371	175.14144	-810.83913	-207.83153	86.43202	-893.32593	-158.14442	102.40543	-844.58469	-282.72988	412.63091	-352.65065	-362.55593	517.28314	-376.13504	-356.92469	407.70433	-355.45600	-367.03016	501.45347	-833.54898	-348.83269	382.21398	-858.49341	-404.86526	888.22565	-408.40100	-369.50285	782.75525	-397.26745	-468.99556	740.99421	-399.19198	-511.79444	849.21913	-412.22423	-418.36940	744.80812	-374.83798	-400.76083	850.76739	-824.02247	-342.03590	725.16740	-818.22717	-500.54029	801.43830	-783.78201	-435.75551	677.73399	-793.70343	-410.30880	1033.11753	-471.65682	-586.66592	1072.08139	-561.00648	-385.80533	1034.68131	-717.38656	-586.77450	1079.89462	-658.99392	-516.34465	1482.07147	-573.49128	-430.42327	1422.72887	-405.22579	-430.93313	1461.50556	-741.88237	-378.23836	1424.77604	-543.53180	-373.95830	1431.21647	-586.91015	-458.96829	1289.71941	-340.52740	-527.72058	1086.78562	-402.13620	-525.64904	1098.43882	-327.42596	-389.76675	1067.65226	-313.07771	-263.87892	1029.40142	-314.86756	-270.88049	996.26979	-304.66481	-432.50192	1376.26199	-831.51909	-524.10856	1151.74717	-857.34920	-501.92492	1198.74858	-923.28574	-397.34874	1157.22127	-910.19552	-266.51120	1079.61466	-905.79231	-274.68865	1068.46128	-935.33840	-481.00857	953.08464	-501.55645	-464.60942	960.22204	-707.25113	-468.56322	953.42839	-511.78538	-468.74263	966.38426	-674.25936	
